<?xml version="1.0" standalone="no"?>
<!DOCTYPE svg PUBLIC "-//W3C//DTD SVG 20010904//EN"
 "http://www.w3.org/TR/2001/REC-SVG-20010904/DTD/svg10.dtd">
<svg version="1.0" xmlns="http://www.w3.org/2000/svg"
 width="977.000000pt" height="720.000000pt" viewBox="0 0 977.000000 720.000000"
 preserveAspectRatio="xMidYMid meet">
<metadata>
Created by potrace 1.15, written by Peter Selinger 2001-2017
</metadata>
<g transform="translate(0.000000,720.000000) scale(0.100000,-0.100000)"
fill="#000000" stroke="none">
<path class="change-fill" d="M1830 7190 c-149 -6 -192 -12 -291 -38 -703 -186 -1278 -693 -1492
-1316 l-42 -121 -3 -383 c-3 -382 -3 -383 22 -478 136 -507 518 -965 1036
-1238 202 -106 474 -201 664 -231 140 -22 377 -34 896 -45 674 -15 726 -22
951 -137 291 -147 468 -369 565 -707 24 -83 27 -111 31 -318 6 -252 -4 -376
-43 -527 -28 -114 -93 -252 -157 -336 -68 -91 -204 -217 -284 -263 -94 -55
-235 -101 -342 -113 -47 -5 -348 -9 -668 -9 l-583 0 0 -465 0 -465 708 0 c546
1 724 4 782 14 167 30 419 137 595 253 472 311 745 768 847 1418 19 123 22
181 23 480 0 232 -4 370 -13 435 -63 446 -178 749 -374 987 -294 356 -984 648
-1608 683 -102 5 -416 14 -698 20 l-513 11 -102 38 c-197 74 -306 139 -420
250 -127 123 -208 267 -259 464 -19 68 -22 109 -22 242 0 144 3 168 27 246 72
237 194 416 370 545 71 53 188 114 262 137 163 50 194 51 3085 52 1477 0 2792
4 2923 9 l237 9 0 454 0 453 -2967 -2 c-1633 -1 -3047 -4 -3143 -8z"/>
<path class="change-fill" d="M8938 7122 c-118 -123 -154 -218 -146 -381 4 -84 10 -108 37 -167 42
-89 87 -143 162 -193 148 -99 345 -109 508 -26 70 35 150 111 185 175 69 128
73 349 7 478 -27 53 -98 131 -150 164 l-45 28 -242 0 -241 0 -75 -78z"/>
<path class="change-fill" d="M8786 5362 c-17 -388 -76 -664 -196 -907 -81 -165 -263 -369 -408
-455 -101 -59 -305 -149 -389 -171 -115 -29 -309 -37 -1046 -45 l-679 -7 5
-1701 c3 -1157 8 -1728 16 -1786 16 -127 31 -157 110 -228 l70 -62 218 0 218
1 56 62 c110 123 112 128 120 306 4 86 8 663 8 1282 l1 1126 308 6 c622 11
1022 94 1437 297 503 246 818 601 985 1109 51 154 92 324 110 456 15 103 24
815 12 834 -10 14 -131 19 -748 35 l-201 5 -7 -157z"/>
<path class="change-fill" d="M357 895 c-62 -17 -134 -64 -190 -123 -103 -111 -131 -192 -125 -362
3 -100 6 -111 41 -183 45 -91 113 -163 188 -201 52 -25 58 -26 244 -26 184 0
193 1 242 25 57 29 136 107 176 175 52 90 68 205 46 339 -14 91 -52 164 -123
236 -100 102 -187 135 -351 134 -55 0 -121 -7 -148 -14z"/>
</g>
</svg>
